<?xml version="1.0" encoding="UTF-8"?>
<svg width="24px" height="24px" viewBox="0 0 24 24" version="1.1" xmlns="http://www.w3.org/2000/svg" xmlns:xlink="http://www.w3.org/1999/xlink">
    <!-- Generator: sketchtool 57.1 (101010) - https://sketch.com -->
    <title>200120B9-C388-47A3-8C9A-133384C485D0</title>
    <desc>Created with sketchtool.</desc>
    <defs>
        <path d="M3.68950751,19.7624709 L3.14821184,20.6033032 C2.79290912,20.3745729 2.50024061,20.0588812 2.29930232,19.686954 L3.17911114,19.2116263 C3.29977149,19.4349628 3.47592706,19.624976 3.68950751,19.7624709 Z M3,18.4173972 L2,18.4173972 L2,17.4173972 L3,17.4173972 L3,18.4173972 Z M3,16.4173972 L2,16.4173972 L2,15.4173972 L3,15.4173972 L3,16.4173972 Z M3,14.4173972 L2,14.4173972 L2,13.4173972 L3,13.4173972 L3,14.4173972 Z M3,12.4173972 L2,12.4173972 L2,11.4173972 L3,11.4173972 L3,12.4173972 Z M3,10.4173972 L2,10.4173972 L2,9.41739717 L3,9.41739717 L3,10.4173972 Z M3,8.41739717 L2,8.41739717 L2,7.41739717 L3,7.41739717 L3,8.41739717 Z M3,6.41739717 L2,6.41739717 L2,5.41739717 L3,5.41739717 L3,6.41739717 Z M3,4.41739717 L2,4.41739717 L2,3.5 C2.00034982,3.44839815 2.00034982,3.44839815 2.00208778,3.39707996 L3.00126327,3.43767987 C3.00021228,3.4687084 3.00021228,3.4687084 3,3.5 L3,4.41739717 Z M3.21924246,2.71864135 L2.36622822,2.19675371 C2.58675126,1.8363135 2.89569382,1.5365939 3.26279343,1.32720413 L3.75825183,2.19583579 C3.53773393,2.32161689 3.35176808,2.50203105 3.21924246,2.71864135 Z M4.52113537,2 L4.52113537,1 L5.52113537,1 L5.52113537,2 L4.52113537,2 Z M6.52113537,2 L6.52113537,1 L7.52113537,1 L7.52113537,2 L6.52113537,2 Z M8.52113537,2 L8.52113537,1 L9.52113537,1 L9.52113537,2 L8.52113537,2 Z M10.5211354,2 L10.5211354,1 L11.5211354,1 L11.5211354,2 L10.5211354,2 Z M12.5211354,2 L12.5211354,1 L13.5211354,1 L13.5211354,2 L12.5211354,2 Z M14.5211354,2 L14.5211354,1 L15.5211354,1 L15.5211354,2 L14.5211354,2 Z M16.516001,2.00008301 L16.5263815,1.00013689 C16.9550677,1.00458708 17.3683252,1.11753959 17.7338973,1.32531989 L17.239764,2.19470607 C17.0208058,2.07025669 16.773856,2.0027598 16.516001,2.00008301 Z M17.8085944,2.76607333 L18.6801853,2.27583941 C18.8332257,2.54793115 18.9343051,2.84697576 18.9769465,3.15950475 L17.9861264,3.29469197 C17.9606043,3.10763411 17.9002104,2.92895814 17.8085944,2.76607333 Z M17,5 L7.5,5 C6.67157288,5 6,5.67157288 6,6.5 L6,20.5 C6,21.3284271 6.67157288,22 7.5,22 L19.5,22 C20.3284271,22 21,21.3284271 21,20.5 L21,9 L17.5,9 C17.2238576,9 17,8.77614237 17,8.5 L17,5 Z M17.4720225,3.99994988 C17.4929536,3.9986887 17.5140196,3.99867173 17.5350914,3.99994988 L17.7071068,3.99994988 L22,8.0782092 L22,8.24162211 C22.0013454,8.26164247 22.0013276,8.2816553 22,8.30153983 L22,20.6249937 C22,21.9366735 20.8807119,23 19.5,23 L7.5,23 C6.11928813,23 5,21.9366735 5,20.6249937 L5,6.37495615 C5,5.06327641 6.11928813,3.99994988 7.5,3.99994988 L17.4720225,3.99994988 L17.4720225,3.99994988 Z M18,5.70710678 L18,8 L20.2928932,8 L18,5.70710678 Z" id="path-1"></path>
    </defs>
    <g id="Quark" stroke="none" stroke-width="1" fill="none" fill-rule="evenodd">
        <g id="assets" transform="translate(-144.000000, -79.000000)">
            <g id="Icon-/-ic_trash" transform="translate(144.000000, 79.000000)">
                <mask id="mask-2" fill="white">
                    <use xlink:href="#path-1"></use>
                </mask>
                <use id="Shape" fill="#979797" fill-rule="nonzero" xlink:href="#path-1"></use>
                <g id="✱-/-Color-/-Primary" mask="url(#mask-2)" fill="#EE2A24">
                    <rect id="Rectangle-13" x="0" y="0" width="24" height="24"></rect>
                </g>
            </g>
        </g>
    </g>
</svg>