<?xml version="1.0" encoding="UTF-8"?>
<svg width="24px" height="24px" viewBox="0 0 24 24" version="1.1" xmlns="http://www.w3.org/2000/svg" xmlns:xlink="http://www.w3.org/1999/xlink">
    <!-- Generator: sketchtool 57.1 (101010) - https://sketch.com -->
    <title>DEA794AD-F75D-421A-809C-5074FA02D6BF</title>
    <desc>Created with sketchtool.</desc>
    <defs>
        <path d="M15,1 C15.2761424,1 15.5,1.22385763 15.5,1.5 L15.5,4 L22,4 L22,5 L19.5,5 L19.5,20.5 C19.5,21.8807119 18.3807119,23 17,23 L7,23 C5.61928813,23 4.5,21.8807119 4.5,20.5 L4.5,5 L2,5 L2,4 L8.5,4 L8.5,1.5 C8.5,1.22385763 8.72385763,1 9,1 L15,1 Z M18.5,5 L5.5,5 L5.5,20.5 C5.5,21.3284271 6.17157288,22 7,22 L17,22 C17.8284271,22 18.5,21.3284271 18.5,20.5 L18.5,5 Z M14.5,2 L9.5,2 L9.5,4 L14.5,4 L14.5,2 Z" id="path-1"></path>
    </defs>
    <g id="Quark" stroke="none" stroke-width="1" fill="none" fill-rule="evenodd">
        <g id="assets" transform="translate(-104.000000, -79.000000)">
            <g id="Icon-/-ic_trash-Copy-4" transform="translate(104.000000, 79.000000)">
                <mask id="mask-2" fill="white">
                    <use xlink:href="#path-1"></use>
                </mask>
                <use id="Combined-Shape" fill="#979797" fill-rule="nonzero" xlink:href="#path-1"></use>
                <g id="✱-/-Color-/-Primary" mask="url(#mask-2)" fill="#EE2A24">
                    <rect id="Rectangle-13" x="0" y="0" width="24" height="24"></rect>
                </g>
            </g>
        </g>
    </g>
</svg>