<?xml version="1.0" encoding="UTF-8"?>
<svg width="24px" height="24px" viewBox="0 0 24 24" version="1.1" xmlns="http://www.w3.org/2000/svg" xmlns:xlink="http://www.w3.org/1999/xlink">
    <!-- Generator: sketchtool 57.1 (101010) - https://sketch.com -->
    <title>633EE719-C0E0-40A5-9A52-8756B55F63E4</title>
    <desc>Created with sketchtool.</desc>
    <defs>
        <path d="M18.0557102,8.12980924 L15.8701908,5.94428975 L3.03026377,18.7842167 L3.03026377,20.9697362 L5.21578326,20.9697362 L18.0557102,8.12980924 Z M18.7842167,7.40130274 L20.667979,5.51754053 C21.070322,5.1151975 21.070322,4.46287056 20.667979,4.06052753 L19.9394725,3.33202104 C19.5371294,2.92967801 18.8848025,2.92967801 18.4824595,3.33202104 L16.5986973,5.21578326 L18.7842167,7.40130274 Z M5.64253248,22 L2,22 L2,18.3574675 L17.753953,2.60351454 C18.558639,1.79882849 19.8632929,1.79882849 20.667979,2.60351454 L21.3964855,3.33202104 C22.2011715,4.13670709 22.2011715,5.44136097 21.3964855,6.24604702 L5.64253248,22 Z" id="path-1"></path>
    </defs>
    <g id="Quark" stroke="none" stroke-width="1" fill="none" fill-rule="evenodd">
        <g id="assets" transform="translate(-64.000000, -79.000000)">
            <g id="Icon-/-ic_trash-Copy" transform="translate(64.000000, 79.000000)">
                <mask id="mask-2" fill="white">
                    <use xlink:href="#path-1"></use>
                </mask>
                <use id="Shape" fill="#979797" fill-rule="nonzero" xlink:href="#path-1"></use>
                <g id="✱-/-Color-/-Primary" mask="url(#mask-2)" fill="#EE2A24">
                    <rect id="Rectangle-13" x="0" y="0" width="24" height="24"></rect>
                </g>
            </g>
        </g>
    </g>
</svg>