<?xml version="1.0" encoding="UTF-8"?>
<svg width="24px" height="24px" viewBox="0 0 24 24" version="1.1" xmlns="http://www.w3.org/2000/svg" xmlns:xlink="http://www.w3.org/1999/xlink">
    <!-- Generator: sketchtool 57.1 (101010) - https://sketch.com -->
    <title>8F45AC6B-CB65-4A60-8FA0-7C9E8E45A98C</title>
    <desc>Created with sketchtool.</desc>
    <defs>
        <path d="M11.5,20 C6.80557963,20 3,16.1944204 3,11.5 C3,6.80557963 6.80557963,3 11.5,3 C16.1944204,3 20,6.80557963 20,11.5 C20,16.1944204 16.1944204,20 11.5,20 Z M11.5,19 C15.6421356,19 19,15.6421356 19,11.5 C19,7.35786438 15.6421356,4 11.5,4 C7.35786438,4 4,7.35786438 4,11.5 C4,15.6421356 7.35786438,19 11.5,19 Z M11.5,15 C9.56700338,15 8,13.4329966 8,11.5 C8,9.56700338 9.56700338,8 11.5,8 C13.4329966,8 15,9.56700338 15,11.5 C15,13.4329966 13.4329966,15 11.5,15 Z M11.5,14 C12.8807119,14 14,12.8807119 14,11.5 C14,10.1192881 12.8807119,9 11.5,9 C10.1192881,9 9,10.1192881 9,11.5 C9,12.8807119 10.1192881,14 11.5,14 Z M11,19 L12,19 L12,22 L11,22 L11,19 Z M5.84314575,16.4497475 L6.55025253,17.1568542 L4.42893219,19.2781746 L3.72182541,18.5710678 L5.84314575,16.4497475 Z M4,11 L4,12 L1,12 L1,11 L4,11 Z M6.55025253,5.84314575 L5.84314575,6.55025253 L3.72182541,4.42893219 L4.42893219,3.72182541 L6.55025253,5.84314575 Z M12,4 L11,4 L11,1 L12,1 L12,4 Z M17.1568542,6.55025253 L16.4497475,5.84314575 L18.5710678,3.72182541 L19.2781746,4.42893219 L17.1568542,6.55025253 Z M19,12 L19,11 L22,11 L22,12 L19,12 Z M16.4497475,17.1568542 L17.1568542,16.4497475 L19.2781746,18.5710678 L18.5710678,19.2781746 L16.4497475,17.1568542 Z" id="path-1"></path>
    </defs>
    <g id="Quark" stroke="none" stroke-width="1" fill="none" fill-rule="evenodd">
        <g id="assets" transform="translate(-504.000000, -79.000000)">
            <g id="Icon-/-ic_assign" transform="translate(504.000000, 79.000000)">
                <mask id="mask-2" fill="white">
                    <use xlink:href="#path-1"></use>
                </mask>
                <use id="Shape" fill="#979797" fill-rule="nonzero" xlink:href="#path-1"></use>
                <g id="✱-/-Color-/-Primary" mask="url(#mask-2)" fill="#EE2A24">
                    <rect id="Rectangle-13" x="0" y="0" width="24" height="24"></rect>
                </g>
            </g>
        </g>
    </g>
</svg>